<?xml version="1.0" encoding="UTF-8" standalone="no"?>
<!-- Generator: Adobe Illustrator 22.1.0, SVG Export Plug-In . SVG Version: 6.00 Build 0)  -->

<svg
   version="1.1"
   id="Layer_1"
   x="0px"
   y="0px"
   viewBox="0 0 20 20"
   style="enable-background:new 0 0 20 20;"
   xml:space="preserve"
   sodipodi:docname="email.svg"
   inkscape:version="1.1 (c68e22c387, 2021-05-23)"
   xmlns:inkscape="http://www.inkscape.org/namespaces/inkscape"
   xmlns:sodipodi="http://sodipodi.sourceforge.net/DTD/sodipodi-0.dtd"
   xmlns="http://www.w3.org/2000/svg"
   xmlns:svg="http://www.w3.org/2000/svg"><defs
   id="defs9" /><sodipodi:namedview
   id="namedview7"
   pagecolor="#ffffff"
   bordercolor="#666666"
   borderopacity="1.0"
   inkscape:pageshadow="2"
   inkscape:pageopacity="0.0"
   inkscape:pagecheckerboard="0"
   showgrid="false"
   inkscape:zoom="41.6"
   inkscape:cx="9.9879808"
   inkscape:cy="10.012019"
   inkscape:window-width="1920"
   inkscape:window-height="1017"
   inkscape:window-x="-8"
   inkscape:window-y="-8"
   inkscape:window-maximized="1"
   inkscape:current-layer="Layer_1" />
<style
   type="text/css"
   id="style2">
	.st0{fill:#505050;}
</style>
<path
   class="st0"
   d="M10,0C4.5,0,0,4.5,0,10s4.5,10,10,10s10-4.5,10-10S15.5,0,10,0z M4.8,12.9L4.8,12.9V8.4V8.3h0.1l3,1.7  c0,0,0,0,0,0.1c0,0,0,0,0,0.1L4.8,12.9C4.9,12.9,4.9,12.9,4.8,12.9L4.8,12.9z M14.8,14.2H5.1c0,0-0.1,0-0.2,0c0,0,0,0,0-0.1V14  l3.8-3.5h0.1l1,0.6c0.2,0.1,0.3,0.1,0.4,0l1.1-0.7c0.1,0,0.1,0,0.1,0l3.4,3.6C14.8,14.1,14.9,14.1,14.8,14.2L14.8,14.2z M15.2,13  C15.2,13,15.2,13.1,15.2,13l-0.1,0.1c0,0,0,0-0.1,0l-2.8-3c0,0,0,0,0-0.1V9.9L15,8.2h0.1l0.1,0.1V13z M15.2,7.2L15.2,7.2  c-0.1,0.1-0.1,0.1-0.1,0.1s0,0-0.1,0l-5,2.9c0,0,0,0-0.1,0l0,0L4.8,7.3c0,0-0.1,0-0.1-0.1V6.1c0-0.1,0-0.2,0.1-0.3  c0.1,0,0.2,0,0.3,0h9.7c0.1,0,0.2,0,0.2,0.1C15.1,6,15.1,6,15.1,6.2v1H15.2z"
   id="path4" />
<path
   style="fill:#f69062;stroke-width:0.0240385"
   d="M 9.5432692,19.973744 C 7.045555,19.87131 4.6256291,18.776468 2.8478945,16.944569 2.3667363,16.44875 2.0173794,16.012698 1.6462372,15.444712 0.734192,14.048941 0.1991474,12.511952 0.04864603,10.855412 c -0.03350718,-0.368807 -0.03350718,-1.342017 0,-1.7108243 C 0.26548971,6.7578305 1.3098556,4.5576339 3.0209536,2.8827389 3.538968,2.3756846 3.9306517,2.0589496 4.5192308,1.6711568 4.9816425,1.366491 5.2212,1.2306127 5.7235161,0.98807969 6.7894447,0.47341776 7.934545,0.15904793 9.1466346,0.04831452 c 0.3713721,-0.0339276 1.3353584,-0.0339276 1.7067304,0 1.209876,0.11053116 2.347818,0.42260808 3.41736,0.93720019 0.507785,0.24431229 0.757697,0.38574479 1.210044,0.68480089 1.149798,0.7601544 2.095552,1.7062428 2.847909,2.8489152 0.412366,0.6262968 0.713468,1.2031014 0.972512,1.8629807 0.510638,1.3007847 0.725794,2.6037736 0.669985,4.0574405 -0.08605,2.241323 -0.965923,4.418148 -2.484575,6.146886 -1.348648,1.535216 -3.163349,2.63413 -5.155132,3.121753 -0.577722,0.141436 -1.231159,0.2371 -1.752669,0.256593 -0.179518,0.0067 -0.391299,0.01533 -0.470626,0.01916 -0.07933,0.0038 -0.3335336,-8.08e-4 -0.5649038,-0.0103 z m 5.2992848,-5.811322 c 0.0077,-0.02437 3.51e-4,-0.07684 -0.01641,-0.116604 -0.01676,-0.03976 -0.793066,-0.8798 -1.725126,-1.866749 -1.255411,-1.329342 -1.708494,-1.794454 -1.748048,-1.794454 -0.04522,0 -1.008367,0.590721 -1.181934,0.724909 -0.06617,0.05116 -0.1871928,0.0574 -0.2840887,0.01466 C 9.849968,11.107875 9.5882293,10.95587 9.3053065,10.786399 8.9767791,10.58961 8.7717947,10.480892 8.7380248,10.485528 c -0.030582,0.0042 -0.8551092,0.746333 -1.9555469,1.760132 l -1.9026702,1.752871 v 0.1041 0.1041 h 4.9743416 c 4.8122197,0 4.9747997,-0.0014 4.9884047,-0.04431 z m 0.318156,-1.113728 0.05564,-0.05227 V 10.649038 8.3016498 l -0.05747,-0.053987 c -0.03921,-0.036837 -0.08028,-0.051531 -0.129285,-0.046257 -0.04238,0.00456 -0.639656,0.3526404 -1.45695,0.849075 L 12.187513,9.8918269 12.187562,10 l 4.8e-5,0.108173 1.396467,1.496394 c 1.499947,1.607277 1.450833,1.562291 1.576612,1.444127 z M 6.3680846,11.554242 7.9086538,10.211849 7.9086058,10.099915 7.9085577,9.9879808 6.4250933,9.1472173 C 5.5346769,8.642568 4.9100486,8.3027671 4.8626329,8.2972317 l -0.078979,-0.00922 v 2.3123253 c 0,1.383225 0.00881,2.309106 0.021931,2.304312 0.012062,-0.0044 0.7151868,-0.612089 1.5625,-1.350405 z M 12.494694,8.7693411 c 1.371308,-0.7958529 2.522185,-1.4514031 2.557505,-1.4567784 0.03532,-0.00538 0.08859,-0.035713 0.118373,-0.067418 0.05409,-0.057577 0.0541,-0.057645 0.0034,-0.057645 -0.05007,0 -0.05084,-0.00791 -0.05828,-0.5990716 -0.0073,-0.5830724 -0.009,-0.600608 -0.06162,-0.6565974 C 15.024339,5.9001918 15,5.8626382 15,5.8483784 15,5.8341184 14.98289,5.8158854 14.96198,5.8078604 14.94107,5.7998304 12.642639,5.7932694 9.8543615,5.7932694 H 4.7847623 l -0.042622,0.065005 c -0.038244,0.058328 -0.042621,0.1342279 -0.042621,0.7389694 V 7.271208 l 0.084135,0.040518 C 4.8299279,7.3340101 5.9981971,7.9962 7.3798077,8.7832589 8.7614183,9.5703175 9.9164825,10.214741 9.9466168,10.215311 9.9768312,10.21588 11.11975,9.5673043 12.494694,8.7693411 Z"
   id="path863" /></svg>
