<svg height="420pt" viewBox="0 -67 420 420" width="420pt" xmlns="http://www.w3.org/2000/svg"><path d="m410 50v186.699219c.007812 22.09375-17.90625 40.007812-40 40h-320c-22.09375.007812-40.007812-17.90625-40-40v-186.699219l200 111.5zm0 0" fill="#e48e66"/><path d="m410 50-200 111.5-200-111.5c-.007812-22.09375 17.90625-40.007812 40-40h320c22.09375-.007812 40.007812 17.90625 40 40zm0 0" fill="#f8ec7d"/><path d="m210 10h-160c-22.09375-.007812-40.007812 17.90625-40 40l200 111.5zm0 0" fill="#e2d574"/><path d="m210 161.5-200-111.5v186.699219c-.007812 22.09375 17.90625 40.007812 40 40h160zm0 0" fill="#d18162"/><path d="m370 0h-320c-27.609375.0117188-49.9882812 22.390625-50 50v186.699219c.0117188 27.609375 22.390625 49.992187 50 50h320c27.609375-.007813 49.988281-22.390625 50-50v-186.699219c-.011719-27.609375-22.390625-49.9882812-50-50zm-320 20h320c14.402344.039062 26.761719 10.261719 29.5 24.398438l-189.5 105.601562-189.5-105.601562c2.738281-14.136719 15.097656-24.359376 29.5-24.398438zm350 216.601562c-.046875 16.546876-13.453125 29.949219-30 30h-320c-16.546875-.050781-29.953125-13.453124-30-30v-169.601562l185.101562 103.199219c1.5.824219 3.183594 1.273437 4.898438 1.300781 1.722656.019531 3.414062-.429688 4.898438-1.300781l185.101562-103.199219zm0 0" fill="#63316d"/></svg>