<?xml version="1.0" encoding="UTF-8" standalone="no"?>
<!-- Generator: Adobe Illustrator 22.1.0, SVG Export Plug-In . SVG Version: 6.00 Build 0)  -->

<svg
   version="1.1"
   id="Layer_1"
   x="0px"
   y="0px"
   viewBox="0 0 20 20"
   style="enable-background:new 0 0 20 20;"
   xml:space="preserve"
   sodipodi:docname="phone.svg"
   inkscape:version="1.1 (c68e22c387, 2021-05-23)"
   xmlns:inkscape="http://www.inkscape.org/namespaces/inkscape"
   xmlns:sodipodi="http://sodipodi.sourceforge.net/DTD/sodipodi-0.dtd"
   xmlns="http://www.w3.org/2000/svg"
   xmlns:svg="http://www.w3.org/2000/svg"><defs
   id="defs9" /><sodipodi:namedview
   id="namedview7"
   pagecolor="#ffffff"
   bordercolor="#666666"
   borderopacity="1.0"
   inkscape:pageshadow="2"
   inkscape:pageopacity="0.0"
   inkscape:pagecheckerboard="0"
   showgrid="false"
   inkscape:zoom="41.6"
   inkscape:cx="9.9879808"
   inkscape:cy="10.012019"
   inkscape:window-width="1920"
   inkscape:window-height="1017"
   inkscape:window-x="1912"
   inkscape:window-y="-8"
   inkscape:window-maximized="1"
   inkscape:current-layer="Layer_1" />
<style
   type="text/css"
   id="style2">
	.st0{fill:#505050;}
</style>
<path
   class="st0"
   d="M10,0C4.5,0,0,4.5,0,10s4.5,10,10,10s10-4.5,10-10S15.5,0,10,0z M15.3,14.7l-0.8,0.8c-0.1,0.1-0.6,0.2-0.6,0.2  c-2.6,0-5.1-1-6.9-2.8s-2.9-4.4-2.8-7c0,0,0.1-0.4,0.2-0.6l0.8-0.8C5.5,4.3,6,4.1,6.4,4.3l0.2,0.1C7,4.5,7.4,5,7.5,5.4L8,6.8  c0.1,0.4,0,1-0.3,1.3L7.1,8.7c0.5,2,2.1,3.6,4.1,4.1l0.6-0.5c0.3-0.3,0.9-0.5,1.3-0.3l1.5,0.4c0.4,0.1,0.9,0.5,1,0.9l0.1,0.2  C15.8,13.8,15.6,14.4,15.3,14.7z"
   id="path4" />
<path
   style="fill:#231b1b;stroke-width:0.0240385"
   d="M 9.5432692,19.973744 C 7.045555,19.87131 4.6256291,18.776468 2.8478945,16.944569 2.3667363,16.44875 2.0173794,16.012698 1.6462372,15.444712 0.734192,14.048941 0.1991474,12.511952 0.04864603,10.855412 c -0.03350718,-0.368807 -0.03350718,-1.342017 0,-1.7108243 C 0.17718279,7.7298082 0.60301651,6.357026 1.2982131,5.1162942 1.9211482,4.0045291 2.8646173,2.914744 3.90625,2.1037947 4.1862731,1.8857866 4.7964103,1.4795952 5.1105353,1.3020566 6.3360361,0.60942269 7.7239712,0.1782854 9.1466346,0.04831452 c 0.3713721,-0.0339276 1.3353584,-0.0339276 1.7067304,0 1.209876,0.11053116 2.347818,0.42260808 3.41736,0.93720019 0.507785,0.24431229 0.757697,0.38574479 1.210044,0.68480089 1.149798,0.7601544 2.095552,1.7062428 2.847909,2.8489152 0.412366,0.6262968 0.713468,1.2031014 0.972512,1.8629807 0.510638,1.3007847 0.725794,2.6037736 0.669985,4.0574405 -0.08605,2.241323 -0.965923,4.418148 -2.484575,6.146886 -1.348648,1.535216 -3.163349,2.63413 -5.155132,3.121753 -0.577722,0.141436 -1.231159,0.2371 -1.752669,0.256593 -0.179518,0.0067 -0.391299,0.01533 -0.470626,0.01916 -0.07933,0.0038 -0.3335336,-8.08e-4 -0.5649038,-0.0103 z m 4.4797038,-4.289797 c 0.427181,-0.107611 0.391298,-0.0832 0.944182,-0.64243 0.451609,-0.456795 0.513526,-0.52916 0.590858,-0.690555 0.121657,-0.253902 0.170847,-0.440109 0.171455,-0.649039 4.95e-4,-0.170373 -0.0069,-0.195576 -0.134305,-0.458265 -0.100963,-0.208154 -0.168003,-0.311684 -0.266895,-0.412169 -0.295331,-0.300088 -0.46093,-0.374128 -1.38596,-0.619669 -0.403246,-0.107038 -0.803486,-0.218096 -0.889423,-0.246796 -0.312555,-0.10438 -0.732665,-0.04005 -1.041535,0.15948 -0.06838,0.04418 -0.272904,0.205489 -0.454494,0.358474 -0.181589,0.152985 -0.340712,0.284675 -0.353606,0.292644 -0.03431,0.02121 -0.696736,-0.205694 -0.966346,-0.331001 C 9.5002522,12.102249 8.7920411,11.562456 8.2783584,10.951836 7.782138,10.361974 7.3758572,9.6144808 7.1751087,8.9220293 L 7.1153954,8.7160582 7.4371966,8.390481 C 7.6141873,8.2114135 7.7930488,8.0108173 7.8346671,7.9447115 7.9952029,7.6897178 8.0872921,7.2119995 8.0324966,6.9184589 7.9973127,6.7299788 7.4970168,5.3176803 7.3869589,5.0961538 7.32015,4.9616796 7.2452478,4.8635998 7.0922038,4.7101897 6.8986837,4.5162065 6.8692541,4.4965351 6.5745192,4.3641582 6.3144394,4.2473464 6.233793,4.221975 6.09375,4.2129091 5.8827079,4.1992469 5.6524899,4.2510082 5.409318,4.366794 5.2494661,4.4429075 5.1785416,4.5023356 4.8010909,4.8764312 l -0.4272748,0.423477 -0.098477,0.300767 -0.098477,0.3007671 0.01375,0.5168269 c 0.00756,0.2842548 0.031016,0.6628606 0.052119,0.8413462 0.2944902,2.4907796 1.6378135,4.8768876 3.6067128,6.4065036 1.5594894,1.21155 3.5161941,1.930766 5.5217661,2.029607 0.201725,0.0099 0.397662,0.01973 0.435417,0.02175 0.03776,0.002 0.135111,-0.01307 0.216347,-0.03353 z"
   id="path863" /></svg>
