<svg height="1208pt" viewBox="-262 0 1208 1208" width="1208pt" xmlns="http://www.w3.org/2000/svg"><path d="m664.398438 80.53125c0-33.355469-27.042969-60.398438-60.398438-60.398438h-523.46875c-33.355469 0-60.398438 27.042969-60.398438 60.398438v60.402344h644.265626zm0 0" fill="#d1d3d4"/><path d="m100.664062 1187.867188h483.203126c44.476562 0 80.53125-36.054688 80.53125-80.53125v-40.269532h-644.265626v40.269532c0 44.476562 36.054688 80.53125 80.53125 80.53125zm281.867188-60.398438" fill="#d1d3d4"/><path d="m664.398438 140.933594h-644.265626v926.132812h644.265626zm-322.132813 704.667968c-133.429687 0-241.601563-108.167968-241.601563-241.601562s108.171876-241.601562 241.601563-241.601562c133.433594 0 241.601563 108.167968 241.601563 241.601562s-108.167969 241.601562-241.601563 241.601562zm0 0" fill="#cce2fc"/><path d="m342.265625 362.398438c-133.429687 0-241.601563 108.167968-241.601563 241.601562s108.171876 241.601562 241.601563 241.601562c133.433594 0 241.601563-108.167968 241.601563-241.601562s-108.167969-241.601562-241.601563-241.601562zm99.660156 227.367187-113.894531 113.894531c-31.449219 31.449219-82.4375 31.453125-113.890625.003906 0-.003906 0-.003906-.003906-.003906-15.726563-15.722656-15.730469-41.21875-.007813-56.945312 15.722656-15.730469 41.21875-15.734375 56.945313-.011719l113.894531-113.894531c-15.722656-15.726563-15.71875-41.222656.011719-56.945313 15.726562-15.722656 41.222656-15.71875 56.945312.007813 31.453125 31.449218 31.453125 82.441406.003907 113.890625 0 .003906-.003907.003906-.003907.003906zm0 0" fill="#ffeb99"/><path d="m384.96875 475.871094c-15.71875 15.722656-15.71875 41.214844 0 56.9375l-113.894531 113.894531c-15.726563-15.722656-41.222657-15.71875-56.945313.011719-15.722656 15.726562-15.71875 41.222656.007813 56.945312 31.449219 31.449219 82.441406 31.453125 113.890625.003906.003906-.003906.003906-.003906.003906-.003906l113.894531-113.894531c31.453125-31.449219 31.453125-82.441406.003907-113.890625 0 0-.003907-.003906-.003907-.003906-15.722656-15.726563-41.214843-15.730469-56.945312-.011719-.003907.003906-.007813.007813-.011719.011719zm0 0" fill="#ffe166"/><g fill="#231f20"><path d="m342.265625 865.734375c144.550781 0 261.734375-117.183594 261.734375-261.734375s-117.183594-261.734375-261.734375-261.734375-261.734375 117.183594-261.734375 261.734375c.167969 144.480469 117.253906 261.566406 261.734375 261.734375zm0-483.203125c122.3125 0 221.46875 99.15625 221.46875 221.46875s-99.15625 221.46875-221.46875 221.46875-221.464844-99.15625-221.464844-221.46875c.144531-122.253906 99.210938-221.320312 221.464844-221.46875zm0 0"/><path d="m271.074219 747.328125c26.699219.042969 52.316406-10.550781 71.191406-29.433594l113.894531-113.894531c39.246094-39.339844 39.246094-103.023438 0-142.363281-23.898437-22.832031-61.527344-22.832031-85.425781 0-18.070313 18.121093-22.800781 45.640625-11.820313 68.753906l-90.257812 90.257813c-23.160156-10.628907-50.472656-5.933594-68.753906 11.820312-23.589844 23.585938-23.59375 61.828125-.007813 85.417969.003907.003906.007813.003906.007813.007812 18.867187 18.882813 44.480468 29.472657 71.171875 29.433594zm-42.703125-86.390625c7.863281-7.859375 20.605468-7.859375 28.46875 0 7.863281 7.859375 20.605468 7.859375 28.46875 0l113.894531-113.894531c7.859375-7.863281 7.859375-20.605469 0-28.46875s-7.859375-20.605469 0-28.46875c7.972656-7.605469 20.515625-7.605469 28.488281 0 23.539063 23.609375 23.539063 61.8125 0 85.425781l-113.894531 113.894531c-23.585937 23.589844-61.828125 23.59375-85.417969.007813-.003906-.003906-.007812-.003906-.007812-.007813-7.859375-7.863281-7.859375-20.605469 0-28.46875zm0 0"/><path d="m604 0h-523.46875c-44.476562 0-80.53125 36.054688-80.53125 80.53125v1026.800781c.0664062 55.570313 45.097656 100.601563 100.667969 100.667969h483.199219c55.570312-.066406 100.601562-45.097656 100.667968-100.667969v-1026.800781c-.003906-44.476562-36.058594-80.53125-80.535156-80.53125zm40.265625 1107.332031c0 33.359375-27.042969 60.402344-60.398437 60.402344h-483.203126c-33.355468 0-60.398437-27.042969-60.398437-60.402344v-20.132812h604zm0-60.398437h-604v-885.867188h604zm0-926.132813h-604v-40.269531c0-22.238281 18.027344-40.265625 40.265625-40.265625h523.46875c22.238281 0 40.265625 18.027344 40.265625 40.265625zm0 0"/><path d="m302 1107.332031h80.53125v40.269531h-80.53125zm0 0"/></g></svg>