<?xml version="1.0" encoding="UTF-8" standalone="no"?>
<!-- Generator: Adobe Illustrator 22.1.0, SVG Export Plug-In . SVG Version: 6.00 Build 0)  -->

<svg
   version="1.1"
   id="Layer_1"
   x="0px"
   y="0px"
   viewBox="0 0 20 20"
   style="enable-background:new 0 0 20 20;"
   xml:space="preserve"
   sodipodi:docname="telegram.svg"
   inkscape:version="1.1 (c68e22c387, 2021-05-23)"
   xmlns:inkscape="http://www.inkscape.org/namespaces/inkscape"
   xmlns:sodipodi="http://sodipodi.sourceforge.net/DTD/sodipodi-0.dtd"
   xmlns="http://www.w3.org/2000/svg"
   xmlns:svg="http://www.w3.org/2000/svg"><defs
   id="defs9" /><sodipodi:namedview
   id="namedview7"
   pagecolor="#ffffff"
   bordercolor="#666666"
   borderopacity="1.0"
   inkscape:pageshadow="2"
   inkscape:pageopacity="0.0"
   inkscape:pagecheckerboard="0"
   showgrid="false"
   inkscape:zoom="41.6"
   inkscape:cx="9.9879808"
   inkscape:cy="10.012019"
   inkscape:window-width="1920"
   inkscape:window-height="1017"
   inkscape:window-x="1912"
   inkscape:window-y="-8"
   inkscape:window-maximized="1"
   inkscape:current-layer="Layer_1" />
<style
   type="text/css"
   id="style2">
	.st0{fill:#505050;}
</style>
<path
   class="st0"
   d="M10,0C4.5,0,0,4.5,0,10s4.5,10,10,10s10-4.5,10-10S15.5,0,10,0z M15.5,6.6l-1.7,8.1c-0.1,0.6-0.5,0.7-1,0.4  l-2.6-1.9l-1.3,1.2c-0.1,0.1-0.3,0.3-0.5,0.3L8.6,12l4.9-4.4c0.2-0.2,0-0.3-0.3-0.1l-6,3.8l-2.6-0.8c-0.7-0.1-0.7-0.5,0-0.8  l10.2-3.9C15.2,5.6,15.6,5.9,15.5,6.6z"
   id="path4" />
<path
   style="fill:#231b1b;stroke-width:0.0240385"
   d="M 9.5432692,19.973744 C 7.045555,19.87131 4.6256291,18.776468 2.8478945,16.944569 2.3667363,16.44875 2.0173794,16.012698 1.6462372,15.444712 0.734192,14.048941 0.1991474,12.511952 0.04864603,10.855412 c -0.03350718,-0.368807 -0.03350718,-1.342017 0,-1.7108243 C 0.26548971,6.7578305 1.3098556,4.5576339 3.0209536,2.8827389 3.538968,2.3756846 3.9306517,2.0589496 4.5192308,1.6711568 4.9816425,1.366491 5.2212,1.2306127 5.7235161,0.98807969 6.7894447,0.47341776 7.934545,0.15904793 9.1466346,0.04831452 c 0.3713721,-0.0339276 1.3353584,-0.0339276 1.7067304,0 1.209876,0.11053116 2.347818,0.42260808 3.41736,0.93720019 0.507785,0.24431229 0.757697,0.38574479 1.210044,0.68480089 1.149798,0.7601544 2.095552,1.7062428 2.847909,2.8489152 0.412366,0.6262968 0.713468,1.2031014 0.972512,1.8629807 0.510638,1.3007847 0.725794,2.6037736 0.669985,4.0574405 -0.08605,2.241323 -0.965923,4.418148 -2.484575,6.146886 -1.348648,1.535216 -3.163349,2.63413 -5.155132,3.121753 -0.577722,0.141436 -1.231159,0.2371 -1.752669,0.256593 -0.179518,0.0067 -0.391299,0.01533 -0.470626,0.01916 -0.07933,0.0038 -0.3335336,-8.08e-4 -0.5649038,-0.0103 z m 4.0300068,-4.795932 c 0.05017,-0.04061 0.11592,-0.123353 0.146101,-0.183874 0.06302,-0.126363 1.782414,-8.2606104 1.803247,-8.5309289 0.01243,-0.1612932 -0.02109,-0.3634603 -0.0794,-0.4788935 C 15.350586,5.8007447 15.138514,5.6963596 14.9483,5.7405084 14.824019,5.7693541 4.5986673,9.6815296 4.4591346,9.7536178 4.209395,9.8826435 4.0627695,10.039232 4.0625899,10.177107 c -1.442e-4,0.11615 0.1475358,0.239412 0.3484678,0.290837 0.092548,0.02369 0.7524038,0.221875 1.4663461,0.44042 0.7139424,0.218544 1.3088943,0.397096 1.3221154,0.396782 0.013221,-3.15e-4 1.376202,-0.857968 3.0288458,-1.9058965 1.652645,-1.0479286 3.051211,-1.9262884 3.107926,-1.9519108 0.241842,-0.1092594 0.288472,0.00137 0.08402,0.1993397 -0.07648,0.074063 -1.196456,1.0832132 -2.488824,2.2425572 -1.5126975,1.3569954 -2.3497592,2.1237604 -2.3497592,2.1524264 0,0.02449 -0.043684,0.631212 -0.097075,1.348269 -0.053391,0.717057 -0.091321,1.309494 -0.084289,1.316525 0.028884,0.02889 0.2111041,-0.05066 0.3338014,-0.145708 0.072142,-0.05589 0.4111298,-0.361229 0.753306,-0.678536 0.3421762,-0.317308 0.6440128,-0.595593 0.6707478,-0.618411 0.04725,-0.04033 0.08488,-0.01496 1.345434,0.907059 0.713254,0.5217 1.345503,0.97186 1.404998,1.000357 0.170909,0.08186 0.217369,0.09182 0.40088,0.08595 0.152488,-0.0049 0.183105,-0.01409 0.263742,-0.07936 z"
   id="path863" /></svg>
